Coordinates
version=1
nRows=12
nColumns=42
inDegrees=yes

Units are S.I. units (second, meters, Newtons, ...)
If the header above contains a line with 'inDegrees', this indicates whether rotational values are in degrees (yes) or radians (no).

endheader
time	pelvis_tilt	pelvis_list	pelvis_rotation	pelvis_tx	pelvis_ty	pelvis_tz	hip_flexion_r	hip_adduction_r	hip_rotation_r	knee_angle_r	knee_adduction_r	knee_angle_r_beta	ankle_angle_r	subtalar_angle_r	mtp_angle_r	hip_flexion_l	hip_adduction_l	hip_rotation_l	knee_angle_l	knee_adduction_l	knee_angle_l_beta	ankle_angle_l	subtalar_angle_l	mtp_angle_l	lumbar_extension	lumbar_bending	lumbar_rotation	arm_flex_r	arm_add_r	arm_rot_r	elbow_flex_r	pro_sup_r	wrist_flex_r	wrist_dev_r	arm_flex_l	arm_add_l	arm_rot_l	elbow_flex_l	pro_sup_l	wrist_flex_l	wrist_dev_l
      0.92000000	      7.64450381	      0.08438930	      9.02549936	     -0.62459641	      0.87200110	      0.16365324	     11.01388422	     -0.33833804	     -5.37871996	     60.96729239	      0.37989260	      1.06407999	     18.28967915	    -15.81792096	     -7.97584828	      7.35741483	      5.64445621	     -4.77022845	     28.80808013	     -5.74107099	      0.50279585	     21.82731676	      1.39731600	     -7.97584828	    -37.09886268	      4.81827906	     -7.05404999	     15.16720614	    -10.74981487	      6.57796853	     43.04981403	     90.00000001	      0.00000000	      0.00000000	     16.98222040	    -15.32181395	     -5.33582729	     36.64685787	     90.00000001	      0.00000000	      0.00000000
      0.93000000	      7.66089085	     -0.06435283	      9.19518325	     -0.61661323	      0.87247414	      0.16310894	     12.02288508	     -0.24136395	     -5.02887440	     59.20874268	      0.58146111	      1.03338751	     18.36297714	    -15.64809662	     -7.95696528	      6.71419695	      5.40110974	     -4.50820316	     28.77835872	     -5.63249877	      0.50227711	     22.38594789	      1.50565302	     -7.95696528	    -37.22587063	      5.12255981	     -7.17227387	     14.90126831	    -10.52724141	      6.35835976	     41.99318057	     90.00000001	      0.00000000	      0.00000000	     17.56748488	    -15.77057583	     -4.14766629	     37.46283403	     90.00000001	      0.00000000	      0.00000000
      0.94000000	      7.55481720	     -0.15205000	      9.30422337	     -0.60864860	      0.87250112	      0.16265445	     13.14114465	     -0.27152784	     -4.75735797	     57.31381196	      0.76129754	      1.00031473	     18.55607959	    -15.35840480	     -7.94372613	      6.25260290	      5.32701289	     -4.34089000	     28.83464524	     -5.72818993	      0.50325950	     22.97715403	      1.49831601	     -7.94372613	    -37.22006769	      5.31244643	     -7.26363110	     14.52729929	    -10.40170793	      6.22123499	     41.20906010	     90.00000001	      0.00000000	      0.00000000	     18.21206977	    -16.09720374	     -3.52835599	     38.06906463	     90.00000001	      0.00000000	      0.00000000
      0.95000000	      7.48563482	     -0.25436305	      9.42466983	     -0.60059873	      0.87250395	      0.16222801	     14.07987585	     -0.27039017	     -4.39937192	     55.09143497	      1.02989080	      0.96152693	     18.52120611	    -15.07908906	     -7.93045570	      5.74128532	      5.20523412	     -4.18501445	     28.87589574	     -5.79250598	      0.50397946	     23.52653042	      1.51033769	     -7.93045570	    -37.23757551	      5.53225145	     -7.35156927	     14.15851185	    -10.25702193	      5.99062005	     40.42150916	     90.00000001	      0.00000000	      0.00000000	     18.82066766	    -16.42770100	     -2.82861324	     38.75247024	     90.00000001	      0.00000000	      0.00000000
      0.96000000	      7.41836458	     -0.33032872	      9.52344967	     -0.59245670	      0.87238001	      0.16187173	     14.89641072	     -0.28329122	     -4.01485285	     52.59471695	      1.31005477	      0.91795098	     18.35322393	    -14.88952155	     -7.91747721	      5.21518419	      5.10923772	     -4.05288864	     28.91060697	     -5.87296456	      0.50458528	     24.07020263	      1.53844963	     -7.91747721	    -37.24736973	      5.70851765	     -7.42832920	     13.75468125	    -10.12444883	      5.68564469	     39.70711236	     90.00000001	      0.00000000	      0.00000000	     19.38306637	    -16.75629505	     -2.15079381	     39.45157807	     90.00000001	      0.00000000	      0.00000000
      0.97000000	      7.05452246	     -0.21355747	      9.49180389	     -0.58449982	      0.87146225	      0.16161240	     16.16578233	     -0.59370148	     -3.88040464	     50.29298477	      1.31811764	      0.87777817	     18.17011775	    -14.39141203	     -7.91023478	      5.03468173	      5.39053673	     -4.07573601	     28.95500762	     -6.18093379	      0.50536022	     24.43497938	      1.55659363	     -7.91023478	    -36.96816532	      5.60186855	     -7.53829368	     13.18396295	    -10.07156035	      5.56438429	     39.32669370	     90.00000001	      0.00000000	      0.00000000	     19.95819185	    -16.97719929	     -1.89531611	     40.02492569	     90.00000001	      0.00000000	      0.00000000
      0.98000000	      7.18211372	     -0.43552302	      9.70503842	     -0.57608652	      0.87154107	      0.16133775	     16.32622305	     -0.42048349	     -3.41446224	     46.89270831	      1.86429559	      0.81843216	     17.91876455	    -14.53979317	     -7.89875592	      4.32181090	      4.99155522	     -3.95761746	     29.06753589	     -6.14966676	      0.50732421	     25.24934326	      1.60233509	     -7.89875592	    -37.13143430	      5.98765125	     -7.62514892	     12.90762705	     -9.85882881	      5.01910726	     38.39378637	     90.00000001	      0.00000000	      0.00000000	     20.43836258	    -17.38706818	     -1.06429122	     40.85066377	     90.00000001	      0.00000000	      0.00000000
      0.99000000	      7.18726741	     -0.46755668	      9.75171688	     -0.56774325	      0.87129340	      0.16135798	     16.66796734	     -0.41357119	     -3.09893879	     43.56899465	      2.04711610	      0.76042241	     17.38209603	    -14.78779896	     -7.88679397	      3.64192834	      4.85165477	     -4.01360975	     28.98699764	     -6.20859701	      0.50591855	     25.79049147	      1.86957395	     -7.88679397	    -37.21030572	      6.07840372	     -7.64999060	     12.47218442	     -9.68100210	      4.44030260	     37.88372229	     90.00000001	      0.00000000	      0.00000000	     20.95255760	    -17.73576398	     -0.45556979	     41.65594011	     90.00000001	      0.00000000	      0.00000000
      1.00000000	      6.91967311	     -0.38039805	      9.75883290	     -0.55952117	      0.87031600	      0.16125443	     17.34629780	     -0.63725800	     -3.07879605	     40.33875312	      2.05196376	      0.70404406	     17.04292665	    -14.63897524	     -7.87748437	      3.31360885	      5.00231706	     -4.15090016	     28.99359341	     -6.47283317	      0.50603367	     26.33002937	      2.04497748	     -7.87748437	    -37.01246939	      6.01963776	     -7.76071234	     11.95018245	     -9.60875784	      4.03000653	     37.48872354	     90.00000001	      0.00000000	      0.00000000	     21.37141418	    -17.98624057	     -0.11193387	     42.33052985	     90.00000001	      0.00000000	      0.00000000
      1.01000000	      7.16496495	     -0.48337113	      9.71351910	     -0.55071822	      0.87045104	      0.16172511	     16.99431044	     -0.36355633	     -2.72680966	     36.25569855	      2.10767466	      0.63278131	     16.14768710	    -15.35965163	     -7.85553514	      2.26428164	      4.55488412	     -4.51224708	     28.75739448	     -6.35863535	      0.50191122	     26.99265218	      3.00555465	     -7.85553514	    -37.32791115	      6.13899814	     -7.61061804	     11.49988532	     -9.39835469	      3.03150248	     37.08051283	     90.00000001	      0.00000000	      0.00000000	     21.80462466	    -18.29461498	      0.45440145	     43.17925546	     90.00000001	      0.00000000	      0.00000000
      1.02000000	      6.85085954	     -0.43784405	      9.81825137	     -0.54250454	      0.86914182	      0.16161750	     17.49424107	     -0.63295728	     -3.07762717	     32.74540194	      2.13613022	      0.57151508	     16.02268011	    -14.82173662	     -7.84534168	      2.11269620	      4.60175301	     -4.72494499	     29.01123413	     -6.58559361	      0.50634156	     27.63908977	      3.14625215	     -7.84534168	    -37.04873454	      6.15087180	     -7.78137506	     11.03544933	     -9.32038588	      2.66618194	     36.68028226	     90.00000001	      0.00000000	      0.00000000	     22.13987299	    -18.51504335	      0.64003740	     43.90266710	     90.00000001	      0.00000000	      0.00000000
      1.03000000	      6.90424780	     -0.50521323	      9.80016573	     -0.53380748	      0.86867252	      0.16207869	     17.24498152	     -0.41604010	     -3.21122712	     28.69377958	      1.86622897	      0.50080093	     15.40191285	    -14.76319156	     -7.83051402	      1.33829115	      4.29022640	     -5.08925820	     28.86857113	     -6.60673701	      0.50385162	     28.32070823	      3.96559077	     -7.83051402	    -37.17304805	      6.23595750	     -7.71991428	     10.61139417	     -9.18285255	      1.89529476	     36.36720119	     90.00000001	      0.00000000	      0.00000000	     22.46071452	    -18.76073901	      0.88723434	     44.72540332	     90.00000001	      0.00000000	      0.00000000
